<svg id="Layer_1" data-name="Layer 1" xmlns="http://www.w3.org/2000/svg" xmlns:xlink="http://www.w3.org/1999/xlink" viewBox="0 0 819 124"><defs><style>.cls-1,.cls-2{fill:none;stroke-linecap:round;stroke-miterlimit:10;stroke-width:5px;}.cls-1{stroke:url(#linear-gradient);}.cls-2{stroke:#d0e6bc;}.cls-3{fill:#303030;}</style><linearGradient id="linear-gradient" x1="484.45" y1="946.45" x2="661.45" y2="946.45" gradientTransform="matrix(1, 0, 0, -1, 0, 1002)" gradientUnits="userSpaceOnUse"><stop offset="0" stop-color="#55c9eb"/><stop offset="0.25" stop-color="#94d0a4"/><stop offset="0.5" stop-color="#fdf9ca"/><stop offset="0.75" stop-color="#ee397e"/><stop offset="0.99" stop-color="#f9cbdf"/></linearGradient></defs><title>openscore_dark</title><path class="cls-1" d="M587.52,78.26a44.2,44.2,0,0,0,31.22,17.31,40,40,0,0,0,0-80c-28.67,0-46,40-46,40s-17.32,40-46,40a40,40,0,1,1,0-80A49.71,49.71,0,0,1,561.12,33.7"/><polyline class="cls-2" points="556.86 5.03 561.4 33.41 533.3 37.95"/><path class="cls-3" d="M402.68,72.42C404,85.22,408.62,93,432.78,93c17.55,0,27.72-5,27.72-16.63,0-10.3-5.54-13.47-19.54-15.18L420.5,58.69c-11.09-1.32-18.08-6.07-18.08-16.77,0-11.22,8.05-18.08,29.43-18.08,18.09,0,27.73,4.88,28.39,21.91H457.6c-.66-15.31-9.24-19.27-26.54-19.27-19.53,0-26,6.34-26,15.44,0,8.45,4.88,12.68,16,14.13l20.46,2.51c16.24,2,21.65,6.73,21.65,18,0,8.32-4.22,19.14-30.36,19.14-27.85,0-31.42-10.82-32.74-23.23Z"/><path class="cls-3" d="M683.89,26h2.64V44.17h.26c4-13.6,15.58-20.33,27.86-20.33a49.53,49.53,0,0,1,5.67.4v2.64a46.52,46.52,0,0,0-5.81-.4c-15.44,0-28,11.48-28,33.66v33.4h-2.64Z"/><path class="cls-3" d="M733.26,59.75c0,17.82,11.88,33.26,34.58,33.26,23.5,0,30-14.39,32.34-23h2.64c-2.11,9.51-9.5,25.61-35,25.61-23,0-37.22-15.31-37.22-35.9s14.25-35.91,37.22-35.91c19.67,0,36,13.2,36,35.91Zm68-2.64c-1.06-16-12.67-30.63-33.4-30.63-21.78,0-33.4,14-34.58,30.63Z"/><path class="cls-3" d="M41.91,23.7c24.16,0,38.15,16.9,38.15,35.91s-14,35.9-38.15,35.9S3.76,78.62,3.76,59.61,17.75,23.7,41.91,23.7Zm0,66.53C63.29,90.23,74,75.05,74,59.61S63.29,29,41.91,29,9.83,44.16,9.83,59.61,20.52,90.23,41.91,90.23Z"/><path class="cls-3" d="M104.08,25.81h6.07V40.6h.26c3.17-8.05,12.54-16.9,30-16.9,23.76,0,36,16.9,36,36,0,21.52-15.45,35.77-36,35.77-16.63,0-26-9.11-30-16.5h-.26v41.06h-6.07ZM109.36,59c0,23.76,17.16,31.28,30.89,31.28,15.57,0,30.09-9.77,30.09-30.36C170.34,40.47,157.8,29,141,29,115.69,29,109.36,46.94,109.36,59Z"/><path class="cls-3" d="M202.55,60.93c.39,16.89,11.88,29.3,32.21,29.3,21,0,26.4-13.2,28.77-19.27h6.08c-5.68,17-17.56,24.55-35.51,24.55-23.1,0-37.62-14-37.62-36.43,0-14.12,9-35.38,37.75-35.38,23.5,0,37,15.58,37.22,37.23Zm62-5.28C262.08,37.17,249.15,29,233.57,29c-17.43,0-28.38,10.56-31,26.67Z"/><path class="cls-3" d="M294.29,25.81h6.07V39.28h.26c4.23-8,13.07-15.58,28.52-15.58,31,0,31,19.8,31,28V93.4h-6.08V52c0-13.73-5.14-23-25.08-23s-28.64,12.41-28.64,25V93.4h-6.07Z"/></svg>